<mxfile host="Electron" modified="2023-09-02T16:10:38.473Z" agent="Mozilla/5.0 (Windows NT 10.0; Win64; x64) AppleWebKit/537.36 (KHTML, like Gecko) draw.io/21.2.8 Chrome/112.0.5615.165 Electron/24.2.0 Safari/537.36" etag="MerysnYmNmnwxZKPJKFz" version="21.2.8" type="device">
  <diagram name="PÃ¡gina-1" id="ctV1LAYlhdu0PN3EPtzc">
    <mxGraphModel dx="858" dy="508" grid="1" gridSize="10" guides="1" tooltips="1" connect="1" arrows="1" fold="1" page="1" pageScale="1" pageWidth="827" pageHeight="1169" math="0" shadow="0">
      <root>
        <mxCell id="0" />
        <mxCell id="1" parent="0" />
        <mxCell id="oHOC3U8sP_fkU0c64HHa-3" value="Mesa" style="swimlane;whiteSpace=wrap;html=1;" parent="1" vertex="1">
          <mxGeometry x="10" y="320" width="260" height="290" as="geometry" />
        </mxCell>
        <mxCell id="oHOC3U8sP_fkU0c64HHa-4" value="-Id: string" style="text;html=1;align=left;verticalAlign=middle;resizable=0;points=[];autosize=1;strokeColor=none;fillColor=none;" parent="oHOC3U8sP_fkU0c64HHa-3" vertex="1">
          <mxGeometry y="30" width="70" height="30" as="geometry" />
        </mxCell>
        <mxCell id="oHOC3U8sP_fkU0c64HHa-5" value="-List&amp;lt;Pedido&amp;gt;: Pedido" style="text;html=1;align=left;verticalAlign=middle;resizable=0;points=[];autosize=1;strokeColor=none;fillColor=none;" parent="oHOC3U8sP_fkU0c64HHa-3" vertex="1">
          <mxGeometry y="60" width="140" height="30" as="geometry" />
        </mxCell>
        <mxCell id="oHOC3U8sP_fkU0c64HHa-7" value="+Crear(String Id):void" style="text;html=1;align=left;verticalAlign=middle;resizable=0;points=[];autosize=1;strokeColor=none;fillColor=none;" parent="oHOC3U8sP_fkU0c64HHa-3" vertex="1">
          <mxGeometry y="108" width="140" height="30" as="geometry" />
        </mxCell>
        <mxCell id="oHOC3U8sP_fkU0c64HHa-8" value="+VerPedido(List&amp;lt;Pedido&amp;gt;):Pedido" style="text;html=1;align=left;verticalAlign=middle;resizable=0;points=[];autosize=1;strokeColor=none;fillColor=none;" parent="oHOC3U8sP_fkU0c64HHa-3" vertex="1">
          <mxGeometry y="138" width="200" height="30" as="geometry" />
        </mxCell>
        <mxCell id="oHOC3U8sP_fkU0c64HHa-9" value="+Eliminar():void" style="text;html=1;align=left;verticalAlign=middle;resizable=0;points=[];autosize=1;strokeColor=none;fillColor=none;" parent="oHOC3U8sP_fkU0c64HHa-3" vertex="1">
          <mxGeometry y="168" width="110" height="30" as="geometry" />
        </mxCell>
        <mxCell id="oHOC3U8sP_fkU0c64HHa-10" value="+Modificar():void" style="text;html=1;align=left;verticalAlign=middle;resizable=0;points=[];autosize=1;strokeColor=none;fillColor=none;" parent="oHOC3U8sP_fkU0c64HHa-3" vertex="1">
          <mxGeometry y="198" width="110" height="30" as="geometry" />
        </mxCell>
        <mxCell id="oHOC3U8sP_fkU0c64HHa-21" value="+CrearPedido(Datetime FechaHoraApertura, &lt;br&gt;Bool estado, List&amp;lt;Producto&amp;gt;): Pedido" style="text;html=1;align=left;verticalAlign=middle;resizable=0;points=[];autosize=1;strokeColor=none;fillColor=none;" parent="oHOC3U8sP_fkU0c64HHa-3" vertex="1">
          <mxGeometry y="228" width="260" height="40" as="geometry" />
        </mxCell>
        <mxCell id="oHOC3U8sP_fkU0c64HHa-6" value="" style="endArrow=none;html=1;rounded=0;exitX=-0.021;exitY=-0.033;exitDx=0;exitDy=0;exitPerimeter=0;" parent="oHOC3U8sP_fkU0c64HHa-3" source="oHOC3U8sP_fkU0c64HHa-7" edge="1">
          <mxGeometry width="50" height="50" relative="1" as="geometry">
            <mxPoint y="105" as="sourcePoint" />
            <mxPoint x="260" y="107" as="targetPoint" />
          </mxGeometry>
        </mxCell>
        <mxCell id="oHOC3U8sP_fkU0c64HHa-11" value="Productos" style="swimlane;whiteSpace=wrap;html=1;" parent="1" vertex="1">
          <mxGeometry x="610" y="510" width="200" height="280" as="geometry" />
        </mxCell>
        <mxCell id="oHOC3U8sP_fkU0c64HHa-13" value="-Elaborado:bool" style="text;html=1;align=left;verticalAlign=middle;resizable=0;points=[];autosize=1;strokeColor=none;fillColor=none;" parent="oHOC3U8sP_fkU0c64HHa-11" vertex="1">
          <mxGeometry y="30" width="110" height="30" as="geometry" />
        </mxCell>
        <mxCell id="oHOC3U8sP_fkU0c64HHa-14" value="-Descripcion:string" style="text;html=1;align=left;verticalAlign=middle;resizable=0;points=[];autosize=1;strokeColor=none;fillColor=none;" parent="oHOC3U8sP_fkU0c64HHa-11" vertex="1">
          <mxGeometry y="60" width="120" height="30" as="geometry" />
        </mxCell>
        <mxCell id="oHOC3U8sP_fkU0c64HHa-15" value="-Costo:float&lt;br&gt;&lt;br style=&quot;border-color: var(--border-color);&quot;&gt;&lt;span style=&quot;&quot;&gt;-Precio:float&lt;/span&gt;" style="text;html=1;align=left;verticalAlign=middle;resizable=0;points=[];autosize=1;strokeColor=none;fillColor=none;" parent="oHOC3U8sP_fkU0c64HHa-11" vertex="1">
          <mxGeometry y="90" width="90" height="60" as="geometry" />
        </mxCell>
        <mxCell id="oHOC3U8sP_fkU0c64HHa-16" value="-Nombre:string" style="text;html=1;align=left;verticalAlign=middle;resizable=0;points=[];autosize=1;strokeColor=none;fillColor=none;" parent="oHOC3U8sP_fkU0c64HHa-11" vertex="1">
          <mxGeometry y="150" width="100" height="30" as="geometry" />
        </mxCell>
        <mxCell id="_PABGASE2RN9hqW6q4yv-1" value="-Id: string" style="text;html=1;align=left;verticalAlign=middle;resizable=0;points=[];autosize=1;strokeColor=none;fillColor=none;" vertex="1" parent="oHOC3U8sP_fkU0c64HHa-11">
          <mxGeometry y="180" width="70" height="30" as="geometry" />
        </mxCell>
        <mxCell id="oHOC3U8sP_fkU0c64HHa-12" value="" style="endArrow=none;html=1;rounded=0;entryX=1;entryY=0.75;entryDx=0;entryDy=0;exitX=0;exitY=0.75;exitDx=0;exitDy=0;" parent="1" source="oHOC3U8sP_fkU0c64HHa-11" target="oHOC3U8sP_fkU0c64HHa-11" edge="1">
          <mxGeometry width="50" height="50" relative="1" as="geometry">
            <mxPoint x="610" y="698" as="sourcePoint" />
            <mxPoint x="410" y="40" as="targetPoint" />
            <Array as="points" />
          </mxGeometry>
        </mxCell>
        <mxCell id="oHOC3U8sP_fkU0c64HHa-17" value="Pedido" style="swimlane;whiteSpace=wrap;html=1;" parent="1" vertex="1">
          <mxGeometry x="320" y="300" width="220" height="270" as="geometry" />
        </mxCell>
        <mxCell id="oHOC3U8sP_fkU0c64HHa-18" value="-Estado:bool&lt;br&gt;&lt;br&gt;-FechaHoraApertura:datetime&lt;br&gt;&lt;br&gt;-FechaHoraCierre:datetime&lt;br&gt;&lt;br&gt;-List&amp;lt;Producto&amp;gt;: Productos" style="text;html=1;align=left;verticalAlign=middle;resizable=0;points=[];autosize=1;strokeColor=none;fillColor=none;" parent="oHOC3U8sP_fkU0c64HHa-17" vertex="1">
          <mxGeometry y="28" width="180" height="110" as="geometry" />
        </mxCell>
        <mxCell id="oHOC3U8sP_fkU0c64HHa-20" value="+Modificar(List&amp;lt;Producto&amp;gt;): Pedido&lt;br&gt;&lt;br&gt;+Pedido(List&amp;lt;Producto&amp;gt;): Productos" style="text;html=1;align=left;verticalAlign=middle;resizable=0;points=[];autosize=1;strokeColor=none;fillColor=none;" parent="oHOC3U8sP_fkU0c64HHa-17" vertex="1">
          <mxGeometry y="190" width="220" height="60" as="geometry" />
        </mxCell>
        <mxCell id="oHOC3U8sP_fkU0c64HHa-19" value="" style="endArrow=none;html=1;rounded=0;" parent="oHOC3U8sP_fkU0c64HHa-17" edge="1">
          <mxGeometry width="50" height="50" relative="1" as="geometry">
            <mxPoint y="180" as="sourcePoint" />
            <mxPoint x="220" y="180" as="targetPoint" />
          </mxGeometry>
        </mxCell>
        <mxCell id="_PABGASE2RN9hqW6q4yv-2" value="-Id: string" style="text;html=1;align=left;verticalAlign=middle;resizable=0;points=[];autosize=1;strokeColor=none;fillColor=none;" vertex="1" parent="oHOC3U8sP_fkU0c64HHa-17">
          <mxGeometry y="138" width="70" height="30" as="geometry" />
        </mxCell>
        <mxCell id="oHOC3U8sP_fkU0c64HHa-22" value="Items" style="swimlane;whiteSpace=wrap;html=1;" parent="1" vertex="1">
          <mxGeometry x="250" y="670" width="200" height="150" as="geometry" />
        </mxCell>
        <mxCell id="oHOC3U8sP_fkU0c64HHa-23" value="-IdPedido:string&lt;br&gt;&lt;br&gt;-IdProducto:string&lt;br&gt;&lt;br&gt;-Cantidad: int" style="text;html=1;align=left;verticalAlign=middle;resizable=0;points=[];autosize=1;strokeColor=none;fillColor=none;" parent="oHOC3U8sP_fkU0c64HHa-22" vertex="1">
          <mxGeometry y="30" width="120" height="90" as="geometry" />
        </mxCell>
        <mxCell id="oHOC3U8sP_fkU0c64HHa-24" value="" style="endArrow=diamondThin;endFill=0;endSize=24;html=1;rounded=0;exitX=0.5;exitY=0;exitDx=0;exitDy=0;" parent="1" source="oHOC3U8sP_fkU0c64HHa-3" edge="1">
          <mxGeometry width="160" relative="1" as="geometry">
            <mxPoint x="120" y="250" as="sourcePoint" />
            <mxPoint x="430" y="300" as="targetPoint" />
            <Array as="points">
              <mxPoint x="140" y="240" />
              <mxPoint x="300" y="240" />
              <mxPoint x="390" y="240" />
              <mxPoint x="430" y="240" />
            </Array>
          </mxGeometry>
        </mxCell>
        <mxCell id="oHOC3U8sP_fkU0c64HHa-26" value="" style="endArrow=diamondThin;endFill=1;endSize=24;html=1;rounded=0;exitX=0.5;exitY=1;exitDx=0;exitDy=0;" parent="1" source="oHOC3U8sP_fkU0c64HHa-11" edge="1">
          <mxGeometry width="160" relative="1" as="geometry">
            <mxPoint x="530" y="850" as="sourcePoint" />
            <mxPoint x="350" y="820" as="targetPoint" />
            <Array as="points">
              <mxPoint x="710" y="900" />
              <mxPoint x="540" y="900" />
              <mxPoint x="350" y="900" />
            </Array>
          </mxGeometry>
        </mxCell>
        <mxCell id="oHOC3U8sP_fkU0c64HHa-27" value="" style="endArrow=diamondThin;endFill=1;endSize=24;html=1;rounded=0;exitX=0.5;exitY=1;exitDx=0;exitDy=0;entryX=0.5;entryY=0;entryDx=0;entryDy=0;" parent="1" source="oHOC3U8sP_fkU0c64HHa-17" target="oHOC3U8sP_fkU0c64HHa-22" edge="1">
          <mxGeometry width="160" relative="1" as="geometry">
            <mxPoint x="340" y="610" as="sourcePoint" />
            <mxPoint x="500" y="610" as="targetPoint" />
          </mxGeometry>
        </mxCell>
      </root>
    </mxGraphModel>
  </diagram>
</mxfile>
